<?xml version="1.0" encoding="utf-8"?>
<!-- Generator: Adobe Illustrator 16.0.0, SVG Export Plug-In . SVG Version: 6.00 Build 0)  -->
<!DOCTYPE svg PUBLIC "-//W3C//DTD SVG 1.1//EN" "http://www.w3.org/Graphics/SVG/1.1/DTD/svg11.dtd">
<svg version="1.1" id="Layer_1" xmlns="http://www.w3.org/2000/svg" xmlns:xlink="http://www.w3.org/1999/xlink" x="0px" y="0px"
	 width="612px" height="792px" viewBox="0 0 612 792" enable-background="new 0 0 612 792" xml:space="preserve">
<g>
	<path fill-rule="evenodd" clip-rule="evenodd" fill="none" stroke="#FFFFFF" stroke-width="4.4436" d="M107.927,105.479
		c-7.368,0-13.984,3.201-18.539,8.294H59.089v33.167h30.299c4.555,5.09,11.171,8.292,18.539,8.292
		c13.742,0,24.879-11.135,24.879-24.877S121.669,105.479,107.927,105.479z M73.832,119.298h11.805
		c-1.132,2.276-1.928,4.758-2.317,7.374h-9.488V119.298z M73.832,141.413V132.2h9.291c0.24,3.291,1.119,6.398,2.515,9.213H73.832z"
		/>
	<g>
		<path fill-rule="evenodd" clip-rule="evenodd" fill="#ED1C24" d="M83.047,130.356c0-13.742,11.141-24.877,24.88-24.877
			c13.742,0,24.879,11.135,24.879,24.877s-11.138,24.877-24.879,24.877C94.188,155.233,83.047,144.098,83.047,130.356z"/>
		<g>
			<polygon fill-rule="evenodd" clip-rule="evenodd" points="59.089,113.773 100.556,113.773 100.556,119.298 73.832,119.298 
				73.832,126.672 99.631,126.672 99.631,132.2 73.832,132.2 73.832,141.413 100.556,141.413 100.556,146.94 59.089,146.94 			"/>
		</g>
	</g>
	<g>
		<polygon fill-rule="evenodd" clip-rule="evenodd" fill="#FFFFFF" points="106.084,113.773 106.084,128.513 108.847,128.513 
			108.847,122.982 110.693,122.982 110.693,120.22 108.847,120.22 108.847,116.532 111.61,116.532 111.61,113.773 		"/>
		<polygon fill-rule="evenodd" clip-rule="evenodd" fill="#FFFFFF" points="106.084,132.2 106.084,146.94 108.847,146.94 
			108.847,141.413 110.693,141.413 110.693,138.647 108.847,138.647 108.847,134.961 111.61,134.961 111.61,132.2 		"/>
	</g>
</g>
<g>
	<g>
		<path d="M363.64,121.384h7.66v2.421h-5.09v5.441h4.436v2.418h-4.436v7.659h-2.57V121.384z"/>
		<path d="M373.065,125.619c0-2.923,2.217-4.384,4.307-4.384c2.092,0,4.311,1.461,4.311,4.384v9.474
			c0,2.922-2.219,4.385-4.311,4.385c-2.09,0-4.307-1.463-4.307-4.385V125.619z M375.634,135.092c0,1.234,0.807,1.814,1.738,1.814
			c0.934,0,1.74-0.58,1.74-1.814v-9.474c0-1.235-0.807-1.813-1.74-1.813c-0.932,0-1.738,0.578-1.738,1.813V135.092z"/>
		<path d="M393.776,135.293c0,2.344-1.865,4.184-4.158,4.184s-4.158-1.84-4.158-4.184v-13.909h2.57v13.657
			c0,1.26,0.682,1.865,1.588,1.865s1.588-0.605,1.588-1.865v-13.657h2.57V135.293z"/>
		<path d="M397.604,121.384h2.471l3.879,10.81h0.051v-10.81h2.57v17.939h-2.418l-3.93-10.784h-0.053v10.784h-2.57V121.384z"/>
		<path d="M410.405,121.384h3.805c2.896,0,4.51,1.738,4.51,4.638v8.389c0,3.328-1.715,4.913-4.736,4.913h-3.578V121.384z
			 M412.976,136.907h1.182c1.438,0,1.992-0.706,1.992-2.243v-8.642c0-1.411-0.479-2.217-1.992-2.217h-1.182V136.907z"/>
		<path d="M425.194,121.384h2.143l4.006,17.939h-2.57l-0.756-3.854h-3.502l-0.756,3.854h-2.57L425.194,121.384z M426.278,126.551
			h-0.051l-1.258,6.5h2.568L426.278,126.551z"/>
		<path d="M434.419,123.805h-2.973v-2.421h8.516v2.421h-2.975v15.519h-2.568V123.805z"/>
		<path d="M442.683,121.384h2.57v17.939h-2.57V121.384z"/>
		<path d="M449.108,125.619c0-2.923,2.217-4.384,4.307-4.384c2.092,0,4.309,1.461,4.309,4.384v9.474
			c0,2.922-2.217,4.385-4.309,4.385c-2.09,0-4.307-1.463-4.307-4.385V125.619z M451.677,135.092c0,1.234,0.807,1.814,1.738,1.814
			c0.934,0,1.738-0.58,1.738-1.814v-9.474c0-1.235-0.805-1.813-1.738-1.813c-0.932,0-1.738,0.578-1.738,1.813V135.092z"/>
		<path d="M461.403,121.384h2.469l3.881,10.81h0.049v-10.81h2.57v17.939h-2.418l-3.93-10.784h-0.051v10.784h-2.57V121.384z"/>
	</g>
	<g>
		<path d="M154.617,121.384h7.66v2.421h-5.09v5.265h4.436v2.419h-4.436v5.266h5.09v2.569h-7.66V121.384z"/>
		<path d="M165.451,121.384h2.57v15.37h5.09v2.569h-7.66V121.384z"/>
		<path d="M176.286,121.384h7.659v2.421h-5.09v5.265h4.436v2.419h-4.436v5.266h5.09v2.569h-7.659V121.384z"/>
		<path d="M195.283,135.319c0,2.217-1.789,4.158-4.082,4.158c-1.966,0-4.233-0.957-4.233-4.234v-9.877
			c0-2.342,1.688-4.131,4.183-4.131c2.368,0,4.132,1.789,4.132,4.282v1.009h-2.57v-0.857c0-1.008-0.604-1.863-1.587-1.863
			c-1.285,0-1.588,0.881-1.588,2.09v9.172c0,1.033,0.403,1.84,1.562,1.84c0.705,0,1.613-0.403,1.613-1.814v-0.882h2.57V135.319z"/>
		<path d="M199.818,123.805h-2.974v-2.421h8.517v2.421h-2.973v15.519h-2.57V123.805z"/>
		<path d="M208.007,121.384h4.132c3.049,0,4.535,1.789,4.535,5.267c0,2.066-0.58,3.578-2.217,4.484l2.771,8.188h-2.722l-2.393-7.659
			h-1.538v7.659h-2.569V121.384z M210.576,129.397h1.462c1.789,0,2.066-1.008,2.066-2.797c0-1.812-0.303-2.795-2.193-2.795h-1.335
			V129.397z"/>
		<path d="M220.101,125.619c0-2.923,2.217-4.384,4.309-4.384c2.092,0,4.309,1.461,4.309,4.384v9.474
			c0,2.922-2.216,4.385-4.309,4.385c-2.091,0-4.309-1.463-4.309-4.385V125.619z M222.67,135.092c0,1.234,0.807,1.814,1.739,1.814
			c0.933,0,1.739-0.58,1.739-1.814v-9.474c0-1.235-0.806-1.813-1.739-1.813c-0.932,0-1.739,0.578-1.739,1.813V135.092z"/>
		<path d="M232.396,121.384h2.469l3.88,10.81h0.05v-10.81h2.571v17.939h-2.419l-3.931-10.784h-0.05v10.784h-2.571V121.384z"/>
		<path d="M245.271,121.384h2.57v17.939h-2.57V121.384z"/>
		<path d="M260.011,135.319c0,2.217-1.789,4.158-4.083,4.158c-1.965,0-4.232-0.957-4.232-4.234v-9.877
			c0-2.342,1.688-4.131,4.182-4.131c2.369,0,4.133,1.789,4.133,4.282v1.009h-2.57v-0.857c0-1.008-0.605-1.863-1.588-1.863
			c-1.285,0-1.587,0.881-1.587,2.09v9.172c0,1.033,0.403,1.84,1.561,1.84c0.706,0,1.614-0.403,1.614-1.814v-0.882h2.57V135.319z"/>
	</g>
	<g>
		<path d="M269.812,121.384h7.66v2.421h-5.09v5.441h4.435v2.418h-4.435v7.659h-2.569V121.384z"/>
		<path d="M280.647,121.384h4.131c3.049,0,4.535,1.789,4.535,5.267c0,2.066-0.579,3.578-2.217,4.484l2.771,8.188h-2.721
			l-2.393-7.659h-1.537v7.659h-2.569V121.384z M283.216,129.397h1.461c1.79,0,2.065-1.008,2.065-2.797
			c0-1.812-0.301-2.795-2.192-2.795h-1.334V129.397z"/>
		<path d="M292.741,125.619c0-2.923,2.217-4.384,4.308-4.384c2.091,0,4.308,1.461,4.308,4.384v9.474
			c0,2.922-2.216,4.385-4.308,4.385c-2.091,0-4.308-1.463-4.308-4.385V125.619z M295.311,135.092c0,1.234,0.806,1.814,1.738,1.814
			c0.932,0,1.738-0.58,1.738-1.814v-9.474c0-1.235-0.806-1.813-1.738-1.813c-0.933,0-1.738,0.578-1.738,1.813V135.092z"/>
		<path d="M305.036,121.384h2.469l3.881,10.81h0.051v-10.81h2.568v17.939h-2.418l-3.93-10.784h-0.051v10.784h-2.57V121.384z"/>
		<path d="M319.522,123.805h-2.971v-2.421h8.516v2.421h-2.975v15.519h-2.57V123.805z"/>
		<path d="M327.788,121.384h2.568v17.939h-2.568V121.384z"/>
		<path d="M334.364,121.384h7.658v2.421h-5.09v5.265h4.436v2.419h-4.436v5.266h5.09v2.569h-7.658V121.384z"/>
		<path d="M345.198,121.384h4.131c3.049,0,4.537,1.789,4.537,5.267c0,2.066-0.58,3.578-2.217,4.484l2.771,8.188h-2.723l-2.395-7.659
			h-1.535v7.659h-2.57V121.384z M347.769,129.397h1.461c1.789,0,2.066-1.008,2.066-2.797c0-1.812-0.303-2.795-2.193-2.795h-1.334
			V129.397z"/>
	</g>
</g>
</svg>
