<?xml version="1.0" encoding="utf-8"?>
<!-- Generator: Adobe Illustrator 16.0.0, SVG Export Plug-In . SVG Version: 6.00 Build 0)  -->
<!DOCTYPE svg PUBLIC "-//W3C//DTD SVG 1.1//EN" "http://www.w3.org/Graphics/SVG/1.1/DTD/svg11.dtd">
<svg version="1.1" id="Layer_1" xmlns="http://www.w3.org/2000/svg" xmlns:xlink="http://www.w3.org/1999/xlink" x="0px" y="0px"
	 width="579.608px" height="90.662px" viewBox="17.825 350.574 579.608 90.662"
	 enable-background="new 17.825 350.574 579.608 90.662" xml:space="preserve">
<g id="XMLID_1_">
	<path id="XMLID_2_" fill="#FFFFFF" d="M17.825,439.893V352.3h26.067v11.117H29.517v26.834h12.458v10.733H29.517v38.907
		L17.825,439.893L17.825,439.893z"/>
	<path id="XMLID_4_" fill="#FFFFFF" d="M53.859,425.517v-58.648c0-9.008,3.642-15.717,16.292-15.717s16.1,6.708,16.1,15.717v58.648
		c0,9.011-3.45,15.72-16.1,15.72C57.501,441.234,53.859,434.525,53.859,425.517z M74.751,425.517v-58.648
		c0-3.066-1.15-5.175-4.408-5.175c-3.258,0-4.6,2.3-4.6,5.175v58.459c0,3.259,1.342,5.367,4.6,5.367
		C73.601,430.693,74.751,428.775,74.751,425.517z"/>
	<path id="XMLID_7_" fill="#FFFFFF" d="M98.709,352.299h17.442c12.075,0,14.759,5.942,14.759,14.95v20.892
		c0,7.475-1.533,12.267-8.05,14.184c4.217,12.458,8.434,25.106,12.458,37.565h-12.65c-3.45-12.268-7.284-24.726-10.733-36.99h-1.725
		v36.99H98.518v-87.593L98.709,352.299L98.709,352.299z M115.385,392.358c3.067,0,4.217-1.534,4.217-4.409v-20.125
		c0-3.067-1.15-4.409-4.217-4.409h-4.792v28.75h4.792V392.358z"/>
	<path id="XMLID_10_" fill="#FFFFFF" d="M171.161,373.958l-6.708,65.935H150.46c-3.258-29.134-6.517-58.268-9.967-87.593h11.692
		l5.175,67.084l7.475-67.084h12.267l7.475,67.084l5.175-67.084h11.692l-9.775,87.593h-14.184L171.161,373.958z"/>
	<path id="XMLID_12_" fill="#FFFFFF" d="M241.503,439.893h-11.692l-1.533-18.018h-9.775l-1.533,18.018h-11.884L215.82,352.3h14.758
		L241.503,439.893z M219.461,411.142h7.475c-1.533-14.564-2.684-30.092-3.833-44.467
		C222.145,381.241,220.42,396.575,219.461,411.142z"/>
	<path id="XMLID_15_" fill="#FFFFFF" d="M250.895,352.299h17.442c12.075,0,14.759,5.942,14.759,14.95v20.892
		c0,7.475-1.534,12.267-8.05,14.184c4.217,12.458,8.434,25.106,12.458,37.565h-12.65c-3.45-12.268-7.283-24.726-10.733-36.99h-1.533
		v36.99h-11.692L250.895,352.299L250.895,352.299z M267.57,392.358c3.067,0,4.217-1.534,4.217-4.409v-20.125
		c0-3.067-1.15-4.409-4.217-4.409h-4.983v28.75h4.983V392.358z"/>
	<path id="XMLID_18_" fill="#FFFFFF" d="M295.746,352.299h17.059c12.458,0,15.524,5.942,15.524,15.333v56.734
		c0,9.773-3.066,15.333-15.333,15.333h-17.25V352.299L295.746,352.299z M312.612,428.967c3.065,0,4.217-1.533,4.217-4.217v-56.925
		c0-3.067-1.149-4.409-4.217-4.409h-4.983v65.551H312.612z"/>
	<path id="XMLID_21_" fill="#FFFFFF" d="M400.589,400.983h-5.559v23c0,3.259,1.726,4.792,5.559,4.792V439.7
		c-5.175,0-8.625-1.149-10.925-3.449c-1.917,2.875-5.367,4.408-10.926,4.408c-11.5,0-15.717-5.561-15.717-15.145V406.35
		c0-5.176,1.915-9.198,5.94-11.309c-4.024-2.108-5.559-5.75-5.559-11.308v-17.442c0-9.2,3.258-15.717,15.906-15.717
		c12.269,0,15.719,6.517,15.719,15.717v10.542h-11.311v-10.542c0-3.066-0.958-5.175-4.407-5.175s-4.407,2.108-4.407,5.175v18.976
		c0,2.683,0.958,4.6,4.217,4.6h21.467L400.589,400.983L400.589,400.983z M383.339,425.517v-24.531h-4.409
		c-3.833,0-4.216,2.684-4.216,5.939v18.209c0,3.45,1.533,5.366,4.408,5.366C381.997,430.692,383.339,428.967,383.339,425.517z"/>
	<path id="XMLID_24_" fill="#FFFFFF" d="M433.556,352.299h17.061c12.075,0,14.95,4.792,14.95,13.8v18.784
		c0,5.175-1.533,8.625-5.561,10.542c4.217,1.917,5.942,5.561,5.942,10.926v18.783c0,9.009-2.686,14.95-14.759,14.95h-17.825v-87.785
		H433.556L433.556,352.299z M445.056,363.608v26.833h4.792c3.644,0,4.219-2.3,4.219-6.325v-14.95c0-3.833-0.575-5.559-4.025-5.559
		L445.056,363.608L445.056,363.608z M450.423,428.967c3.066,0,4.025-1.342,4.025-4.217v-19.167c0-2.875-0.959-4.6-4.217-4.6h-4.983
		v27.981L450.423,428.967L450.423,428.967z"/>
	<path id="XMLID_28_" fill="#FFFFFF" d="M511.374,439.893h-11.692l-1.531-18.018h-9.775l-1.533,18.018h-11.689l10.542-87.593h14.758
		L511.374,439.893z M489.332,411.142h7.475c-1.531-14.564-2.684-30.092-3.833-44.467
		C492.015,381.241,490.29,396.575,489.332,411.142z"/>
	<path id="XMLID_31_" fill="#FFFFFF" d="M538.974,413.634h11.311v11.883c0,9.011-3.644,15.72-15.908,15.72
		c-12.65,0-16.292-6.709-16.292-15.72v-58.648c0-9.2,3.642-15.717,16.292-15.717c12.267,0,15.908,6.708,15.908,15.717v10.542
		h-11.311v-10.542c0-3.066-1.147-5.175-4.406-5.175c-3.26,0-4.602,2.3-4.602,5.175v58.459c0,3.259,1.342,5.367,4.602,5.367
		c3.259,0,4.406-2.108,4.406-5.367V413.634z"/>
	<path id="XMLID_33_" fill="#FFFFFF" d="M573.666,391.4l10.158-39.101h12.842l-13.608,43.317l14.376,44.083h-12.648l-11.117-39.867
		l0.191,39.867h-11.691v-87.401h11.691L573.666,391.4z"/>
</g>
</svg>
