<?xml version="1.0" encoding="utf-8"?>
<!-- Generator: Adobe Illustrator 19.0.0, SVG Export Plug-In . SVG Version: 6.00 Build 0)  -->
<svg version="1.1" id="Layer_1" xmlns="http://www.w3.org/2000/svg" xmlns:xlink="http://www.w3.org/1999/xlink" x="0px" y="0px"
	 viewBox="0 0 319.3 63.6" style="enable-background:new 0 0 319.3 63.6;" xml:space="preserve">
	 
<style type="text/css">
	.st0{fill:param(color) #808285;}
</style>
<g id="XMLID_1_">
	<path id="XMLID_2_" class="st0" d="M9.3,54.7V9h13.6v5.8h-7.5v14h6.5v5.6h-6.5v20.3H9.3z"/>
	<path id="XMLID_4_" class="st0" d="M28.1,47.2V16.6c0-4.7,1.9-8.2,8.5-8.2s8.4,3.5,8.4,8.2v30.6c0,4.7-1.8,8.2-8.4,8.2
		S28.1,51.9,28.1,47.2z M39,47.2V16.6c0-1.6-0.6-2.7-2.3-2.7s-2.4,1.2-2.4,2.7v30.5c0,1.7,0.7,2.8,2.4,2.8S39,48.9,39,47.2z"/>
	<path id="XMLID_7_" class="st0" d="M51.5,9h9.1c6.3,0,7.7,3.1,7.7,7.8v10.9c0,3.9-0.8,6.4-4.2,7.4c2.2,6.5,4.4,13.1,6.5,19.6h-6.6
		c-1.8-6.4-3.8-12.9-5.6-19.3h-0.9v19.3h-6.1V9z M60.2,29.9c1.6,0,2.2-0.8,2.2-2.3V17.1c0-1.6-0.6-2.3-2.2-2.3h-2.5v15H60.2z"/>
	<path id="XMLID_10_" class="st0" d="M89.3,20.3l-3.5,34.4h-7.3C76.8,39.5,75.1,24.3,73.3,9h6.1l2.7,35l3.9-35h6.4l3.9,35l2.7-35
		h6.1l-5.1,45.7h-7.4L89.3,20.3z"/>
	<path id="XMLID_12_" class="st0" d="M126,54.7h-6.1l-0.8-9.4h-5.1l-0.8,9.4H107L112.6,9h7.7L126,54.7z M114.5,39.7h3.9
		c-0.8-7.6-1.4-15.7-2-23.2C115.9,24.1,115,32.1,114.5,39.7z"/>
	<path id="XMLID_15_" class="st0" d="M130.9,9h9.1c6.3,0,7.7,3.1,7.7,7.8v10.9c0,3.9-0.8,6.4-4.2,7.4c2.2,6.5,4.4,13.1,6.5,19.6
		h-6.6c-1.8-6.4-3.8-12.9-5.6-19.3H137v19.3h-6.1V9z M139.6,29.9c1.6,0,2.2-0.8,2.2-2.3V17.1c0-1.6-0.6-2.3-2.2-2.3H137v15H139.6z"
		/>
	<path id="XMLID_18_" class="st0" d="M154.3,9h8.9c6.5,0,8.1,3.1,8.1,8v29.6c0,5.1-1.6,8-8,8h-9V9z M163.1,49c1.6,0,2.2-0.8,2.2-2.2
		V17.1c0-1.6-0.6-2.3-2.2-2.3h-2.6V49H163.1z"/>
	<path id="XMLID_21_" class="st0" d="M209,34.4h-2.9v12c0,1.7,0.9,2.5,2.9,2.5v5.7c-2.7,0-4.5-0.6-5.7-1.8c-1,1.5-2.8,2.3-5.7,2.3
		c-6,0-8.2-2.9-8.2-7.9v-10c0-2.7,1-4.8,3.1-5.9c-2.1-1.1-2.9-3-2.9-5.9v-9.1c0-4.8,1.7-8.2,8.3-8.2c6.4,0,8.2,3.4,8.2,8.2v5.5h-5.9
		v-5.5c0-1.6-0.5-2.7-2.3-2.7s-2.3,1.1-2.3,2.7v9.9c0,1.4,0.5,2.4,2.2,2.4H209V34.4z M200,47.2V34.4h-2.3c-2,0-2.2,1.4-2.2,3.1v9.5
		c0,1.8,0.8,2.8,2.3,2.8C199.3,49.9,200,49,200,47.2z"/>
	<path id="XMLID_24_" class="st0" d="M226.2,9h8.9c6.3,0,7.8,2.5,7.8,7.2V26c0,2.7-0.8,4.5-2.9,5.5c2.2,1,3.1,2.9,3.1,5.7V47
		c0,4.7-1.4,7.8-7.7,7.8h-9.3V9z M232.2,14.9v14h2.5c1.9,0,2.2-1.2,2.2-3.3v-7.8c0-2-0.3-2.9-2.1-2.9H232.2z M235,49
		c1.6,0,2.1-0.7,2.1-2.2v-10c0-1.5-0.5-2.4-2.2-2.4h-2.6V49H235z"/>
	<path id="XMLID_28_" class="st0" d="M266.8,54.7h-6.1l-0.8-9.4h-5.1l-0.8,9.4h-6.1L253.4,9h7.7L266.8,54.7z M255.3,39.7h3.9
		c-0.8-7.6-1.4-15.7-2-23.2C256.7,24.1,255.8,32.1,255.3,39.7z"/>
	<path id="XMLID_31_" class="st0" d="M281.2,41h5.9v6.2c0,4.7-1.9,8.2-8.3,8.2c-6.6,0-8.5-3.5-8.5-8.2V16.6c0-4.8,1.9-8.2,8.5-8.2
		c6.4,0,8.3,3.5,8.3,8.2v5.5h-5.9v-5.5c0-1.6-0.6-2.7-2.3-2.7s-2.4,1.2-2.4,2.7v30.5c0,1.7,0.7,2.8,2.4,2.8s2.3-1.1,2.3-2.8V41z"/>
	<path id="XMLID_33_" class="st0" d="M299.3,29.4L304.6,9h6.7l-7.1,22.6l7.5,23h-6.6l-5.8-20.8l0.1,20.8h-6.1V9h6.1L299.3,29.4z"/>
</g>
</svg>
