<?xml version="1.0" encoding="utf-8"?>
<!-- Generator: Adobe Illustrator 19.0.0, SVG Export Plug-In . SVG Version: 6.00 Build 0)  -->
<svg version="1.1" id="Layer_1" xmlns="http://www.w3.org/2000/svg" xmlns:xlink="http://www.w3.org/1999/xlink" x="0px" y="0px"
	 viewBox="-145 365.4 294 63.6" style="enable-background:new -145 365.4 294 63.6;" xml:space="preserve">
<style type="text/css">
	.st0{fill:#808285;}
</style>
<g>
	<path class="st0" d="M-119.7,384.5l-3.8,36.9h-7.8c-1.8-16.3-3.6-32.7-5.5-49h6.6l2.9,37.6l4.2-37.6h6.9l4.2,37.6l2.9-37.6h6.6
		l-5.5,49h-7.9L-119.7,384.5z"/>
	<path class="st0" d="M-89.4,421.4H-96v-49h6.5v21.2h5.3v-21.2h6.5v49h-6.5v-21.8h-5.3V421.4z"/>
	<path class="st0" d="M-62.8,415.2h8.4v6.2h-14.9v-49h14.9v6.2h-8.4v15h7.3v6h-7.3V415.2z"/>
	<path class="st0" d="M-47,372.4h9.8c6.7,0,8.3,3.4,8.3,8.4v11.7c0,4.1-0.9,6.9-4.5,7.9c2.4,7,4.7,14,7,21h-7.1
		c-2-6.9-4.1-13.8-6-20.7h-1v20.7H-47V372.4z M-37.7,394.7c1.8,0,2.3-0.8,2.3-2.5v-11.2c0-1.7-0.6-2.5-2.4-2.5h-2.7v16.1H-37.7z"/>
	<path class="st0" d="M-14.7,415.2h8.4v6.2h-14.9v-49h14.9v6.2h-8.4v15h7.3v6h-7.3V415.2z"/>
	<path class="st0" d="M19.1,421.4h-6.6l-0.9-10.1H6.1l-0.9,10.1h-6.6l6.1-49H13L19.1,421.4z M6.7,405.3h4.2
		c-0.8-8.2-1.5-16.9-2.1-24.9C8.2,388.6,7.3,397.1,6.7,405.3z"/>
	<path class="st0" d="M25,372.4h9.5c6.8,0,8.4,2.7,8.4,7.7v10.5c0,2.9-0.9,4.8-3.1,6c2.4,1.1,3.4,3.1,3.4,6.1v10.4
		c0,5-1.5,8.3-8.3,8.3H25V372.4z M31.5,378.6v15h2.7c2,0,2.3-1.3,2.3-3.5v-8.3c0-2.1-0.3-3.2-2.2-3.2H31.5z M34.5,415.2
		c1.7,0,2.2-0.8,2.2-2.3v-10.7c0-1.6-0.6-2.6-2.4-2.6h-2.8v15.6H34.5z"/>
	<path class="st0" d="M50.6,413.4v-32.8c0-5,2-8.8,9.1-8.8c7.1,0,9,3.8,9,8.8v32.8c0,5-2,8.8-9,8.8
		C52.6,422.1,50.6,418.4,50.6,413.4z M62.2,413.3v-32.8c0-1.7-0.6-2.9-2.5-2.9c-1.9,0-2.6,1.3-2.6,2.9v32.8c0,1.8,0.7,3,2.6,3
		C61.5,416.3,62.2,415.1,62.2,413.3z"/>
	<path class="st0" d="M82.5,413.4c0,1.8,0.7,2.9,2.6,2.9c1.9,0,2.5-1.1,2.5-2.9v-41h6.5v41c0,4.9-2.2,8.7-9,8.7
		c-7.1,0-9.1-3.6-9.1-8.7v-41h6.5V413.4z"/>
	<path class="st0" d="M111.7,421.4h-6.5v-42.8h-5.5v-6.2h17.5v6.2h-5.5V421.4z"/>
	<path class="st0" d="M133.7,407.9c0-13.5-11.6-8.4-11.6-23.2v-4.3c0-5,2.2-8.8,9-8.8c6.9,0,9,3.7,9,8.8v6h-6.5v-6
		c0-1.7-0.6-2.9-2.5-2.9c-1.9,0-2.5,1.2-2.5,2.9v4.1c0,11.6,11.6,6.4,11.6,23.2v5.7c0,5-2.2,8.7-9,8.7c-6.9,0-9-3.6-9-8.7v-6.7h6.5
		v6.7c0,1.7,0.6,2.9,2.5,2.9c2,0,2.5-1.3,2.5-2.9V407.9z"/>
</g>
</svg>
